<svg width="58" height="58" viewBox="0 0 58 58" fill="none" xmlns="http://www.w3.org/2000/svg">
<circle cx="29" cy="29" r="29" fill="#DE3A3A"/>
<path d="M22.8843 26.9225C22.7223 26.9811 22.6185 27.1359 22.6185 27.3082V29.8608C22.6185 30.6309 22.2652 31.3586 21.6599 31.8349L18.7949 34.0897C18.3811 34.4154 18.0631 34.6285 17.5372 34.6576C16.8459 34.6959 16.0543 34.3152 15.5783 33.8124L14.6163 32.7962C13.7831 31.9162 13.1022 30.793 13.3412 29.6049C13.5268 28.6826 19.6498 23.3333 28.3704 23.3333C37.091 23.3333 43.214 28.6826 43.3995 29.6049C43.6385 30.793 42.9577 31.9162 42.1245 32.7962L41.1624 33.8124C40.6865 34.3152 39.8948 34.6959 39.2035 34.6576C38.6777 34.6285 38.3596 34.4154 37.9458 34.0897L35.0808 31.8349C34.4756 31.3586 34.1223 30.6309 34.1223 29.8608V27.3016C34.1223 27.1326 34.0203 26.9793 33.863 26.9177C29.5289 25.2203 25.0162 26.1517 22.8843 26.9225Z" fill="white"/>
</svg>
