<svg width="58" height="58" viewBox="0 0 58 58" fill="none" xmlns="http://www.w3.org/2000/svg">
<g filter="url(#filter0_b_1_147)">
<circle cx="29" cy="29" r="29" fill="#D4D4D4" fill-opacity="0.2"/>
</g>
<path d="M12.3871 32.034H15.7035C17.1479 37.882 22.4814 42.2222 28.84 42.2222C33.5285 42.2222 37.6597 39.8625 40.0854 36.2786C40.4732 35.7056 40.251 34.9438 39.6464 34.6005C39.0182 34.2438 38.2216 34.4765 37.8054 35.0628C35.8253 37.852 32.5479 39.6752 28.84 39.6752C23.9149 39.6752 19.7495 36.4586 18.3746 32.034H22.1121C22.4563 32.034 22.6287 31.6224 22.3853 31.3817L18.0386 27.0833L17.5228 26.5732C17.3719 26.424 17.1273 26.424 16.9764 26.5732L15.3337 28.1977L12.1139 31.3817C11.8705 31.6224 12.0429 32.034 12.3871 32.034Z" fill="white"/>
<path d="M45.6129 25.966H42.2965C40.8521 20.1179 35.5186 15.7778 29.16 15.7778C24.4715 15.7778 20.3403 18.1375 17.9146 21.7214C17.5268 22.2944 17.749 23.0562 18.3536 23.3995C18.9818 23.7562 19.7784 23.5235 20.1946 22.9372C22.1747 20.148 25.452 18.3248 29.16 18.3248C34.0851 18.3248 38.2505 21.5413 39.6253 25.966H35.8879C35.5437 25.966 35.3713 26.3776 35.6147 26.6182L39.9614 30.9167L40.4772 31.4268C40.6281 31.576 40.8727 31.576 41.0236 31.4268L42.6663 29.8023L45.8861 26.6182C46.1295 26.3776 45.9571 25.966 45.6129 25.966Z" fill="white"/>
<defs>
<filter id="filter0_b_1_147" x="-27" y="-27" width="112" height="112" filterUnits="userSpaceOnUse" color-interpolation-filters="sRGB">
<feFlood flood-opacity="0" result="BackgroundImageFix"/>
<feGaussianBlur in="BackgroundImage" stdDeviation="13.5"/>
<feComposite in2="SourceAlpha" operator="in" result="effect1_backgroundBlur_1_147"/>
<feBlend mode="normal" in="SourceGraphic" in2="effect1_backgroundBlur_1_147" result="shape"/>
</filter>
</defs>
</svg>
