<svg width="24" height="24" viewBox="0 0 24 24" fill="none" xmlns="http://www.w3.org/2000/svg">
<path d="M13.3333 5.33333C13.3333 6.31517 12.5374 7.11111 11.5556 7.11111C10.5737 7.11111 9.77778 6.31517 9.77778 5.33333C9.77778 4.35149 10.5737 3.55556 11.5556 3.55556C12.5374 3.55556 13.3333 4.35149 13.3333 5.33333Z" fill="white"/>
<path d="M13.3333 11.5556C13.3333 12.5374 12.5374 13.3333 11.5556 13.3333C10.5737 13.3333 9.77778 12.5374 9.77778 11.5556C9.77778 10.5737 10.5737 9.77778 11.5556 9.77778C12.5374 9.77778 13.3333 10.5737 13.3333 11.5556Z" fill="white"/>
<path d="M13.3333 17.7778C13.3333 18.7596 12.5374 19.5556 11.5556 19.5556C10.5737 19.5556 9.77778 18.7596 9.77778 17.7778C9.77778 16.7959 10.5737 16 11.5556 16C12.5374 16 13.3333 16.7959 13.3333 17.7778Z" fill="white"/>
</svg>
