<svg width="16" height="16" viewBox="0 0 16 16" fill="none" xmlns="http://www.w3.org/2000/svg">
<path fill-rule="evenodd" clip-rule="evenodd" d="M13.3333 8.2095V12.9143C13.3333 13.5139 12.8393 14 12.2299 14H3.7701C3.16069 14 2.66666 13.5139 2.66666 12.9143V8.2095C2.66666 7.60988 3.16069 7.12379 3.7701 7.12379H4.32183V4.95236C4.32183 3.74601 5.05746 1.33331 7.99999 1.33331C10.9425 1.33331 11.6782 3.74601 11.6782 4.95236V7.12379H12.2299C12.8393 7.12379 13.3333 7.60988 13.3333 8.2095ZM10.2069 4.95236V7.12379H5.79309V4.95236C5.79309 4.22855 6.23447 2.78093 7.99999 2.78093C9.76551 2.78093 10.2069 4.22855 10.2069 4.95236Z" fill="white"/>
</svg>
