<svg width="20" height="20" viewBox="0 0 20 20" fill="none" xmlns="http://www.w3.org/2000/svg">
<path d="M15.3033 4.69669C13.8867 3.28012 12.0033 2.5 10 2.5C7.99667 2.5 6.11326 3.28012 4.69669 4.69669C3.28012 6.11326 2.5 7.99667 2.5 10C2.5 12.0033 3.28012 13.8867 4.69669 15.3033C6.11326 16.7199 7.99667 17.5 10 17.5C12.0033 17.5 13.8867 16.7199 15.3033 15.3033C16.7199 13.8867 17.5 12.0033 17.5 10C17.5 7.99667 16.7198 6.11326 15.3033 4.69669ZM7.21649 7.92478C7.69309 7.92478 8.08079 8.31248 8.08079 8.78907C8.08079 9.26567 7.69309 9.65337 7.21649 9.65337C6.7399 9.65337 6.35219 9.26567 6.35219 8.78907C6.35219 8.31248 6.7399 7.92478 7.21649 7.92478ZM10 14.7954C8.61572 14.7954 7.33527 14.1666 6.48702 13.0703L7.18218 12.5325C7.86275 13.412 8.8898 13.9165 10 13.9165C11.1102 13.9165 12.1373 13.412 12.8178 12.5325L13.513 13.0703C12.6647 14.1666 11.3843 14.7954 10 14.7954ZM12.7835 9.65337C12.3069 9.65337 11.9192 9.26567 11.9192 8.78907C11.9192 8.31248 12.3069 7.92478 12.7835 7.92478C13.2601 7.92478 13.6478 8.31248 13.6478 8.78907C13.6478 9.26567 13.2601 9.65337 12.7835 9.65337Z" fill="white"/>
</svg>
