<svg width="16" height="16" viewBox="0 0 16 16" fill="none" xmlns="http://www.w3.org/2000/svg">
<path d="M8.19628 10.5745C6.85832 10.5745 5.77369 9.51505 5.77369 8.20814V7.19398L9.07158 10.4153C8.8001 10.5181 8.50493 10.5745 8.19628 10.5745Z" fill="white"/>
<path d="M8.88845 12.9409V13.8424C8.88845 14.2158 8.57855 14.5185 8.19628 14.5185C7.81401 14.5185 7.50411 14.2158 7.50411 13.8424V12.9409V12.8941C5.09214 12.5652 3.23574 10.5421 3.23574 8.09545C3.23574 7.92643 3.33956 7.58838 3.75487 7.58838C4.17017 7.58838 4.27399 7.92643 4.27399 8.09545C4.274 10.2114 6.03006 11.9267 8.19628 11.9267C8.90545 11.9267 9.57067 11.7429 10.1447 11.4213C10.328 11.3187 10.5619 11.3361 10.7113 11.482C10.9675 11.7323 10.9395 12.1487 10.6236 12.3222C10.0972 12.6112 9.51135 12.8092 8.88844 12.8941L8.88845 12.9409Z" fill="white"/>
<path d="M10.6189 4.03881V8.20814C10.6189 8.35698 10.6048 8.50261 10.5779 8.64384L11.727 9.76624C11.9778 9.26129 12.1186 8.69443 12.1186 8.09545C12.1186 7.92643 12.2224 7.58837 12.6377 7.58837C13.053 7.58837 13.1568 7.92643 13.1568 8.09545C13.1568 8.97711 12.9158 9.80377 12.4945 10.516L14.6067 12.5791C14.8545 12.8212 14.8545 13.2136 14.6067 13.4556C14.3589 13.6977 13.9572 13.6977 13.7094 13.4556L11.7167 11.5092L10.9825 10.792L2.53391 2.53945C2.28612 2.29742 2.28612 1.905 2.53391 1.66297C2.78169 1.42094 3.18342 1.42094 3.43121 1.66297L5.77527 3.95264C5.82169 2.68564 6.88785 1.67243 8.19628 1.67243C9.53424 1.67243 10.6189 2.73189 10.6189 4.03881Z" fill="white"/>
</svg>
